# xmcd
#
# Track frame offsets: 
#        150
#        10532
#        22194
#        36140
#        48837
#        61322
#        72002
#        85740
#        99987
#        111822
#        124540
#        138760
#        150750
#        162225
#        175480
#        187817
#        199159
#        211942
#
# Disc length: 2970 seconds
#
# Revision: 1
# Processed by: cddbd v1.5.1PL2 Copyright (c) Steve Scherf et al.
# Submitted via: ExactAudioCopy v0.95b4
#
DISCID=d90b9812
DTITLE=Ray Charles - Confession Blues
DYEAR=2001
DGENRE=Blues
TTITLE0=Sittin' On Top Of The World
TTITLE1=See See Rider
TTITLE2=Late In The Evening Blues
TTITLE3=Blues Before Sunrise
TTITLE4=Rockin' Chair Blues
TTITLE5=Th' Ego Song
TTITLE6=This Love On Mine
TTITLE7=Someday
TTITLE8=If I Give You M Ylove
TTITLE9=You'll Never Miss The Water
TTITLE10=Walkin' And Talkin'
TTITLE11=I Love You, I Love You (I Will Never Let You Go)
TTITLE12=She's On The Ball
TTITLE13=Alone In This City
TTITLE14=Honey, Honey
TTITLE15=Confession Blues
TTITLE16=Lonely Boy
TTITLE17=A Sentimental Blues
EXTD=YEAR: 2001 ID3G: 0
EXTT0=
EXTT1=
EXTT2=
EXTT3=
EXTT4=
EXTT5=
EXTT6=
EXTT7=
EXTT8=
EXTT9=
EXTT10=
EXTT11=
EXTT12=
EXTT13=
EXTT14=
EXTT15=
EXTT16=
EXTT17=
PLAYORDER=
